<svg width="32" height="32" viewBox="0 0 32 32" fill="none" xmlns="http://www.w3.org/2000/svg">
<path d="M15.9997 19.9333C15.822 19.9333 15.6553 19.9055 15.4997 19.85C15.3442 19.7944 15.1997 19.7 15.0664 19.5666L8.93307 13.4333C8.68863 13.1888 8.56641 12.8777 8.56641 12.5C8.56641 12.1222 8.68863 11.8111 8.93307 11.5666C9.17752 11.3222 9.48863 11.2 9.86641 11.2C10.2442 11.2 10.5553 11.3222 10.7997 11.5666L15.9997 16.7666L21.1997 11.5666C21.4442 11.3222 21.7553 11.2 22.1331 11.2C22.5109 11.2 22.822 11.3222 23.0664 11.5666C23.3109 11.8111 23.4331 12.1222 23.4331 12.5C23.4331 12.8777 23.3109 13.1888 23.0664 13.4333L16.9331 19.5666C16.7997 19.7 16.6553 19.7944 16.4997 19.85C16.3442 19.9055 16.1775 19.9333 15.9997 19.9333Z" fill="#484746"/>
</svg>
