<svg width="32" height="32" viewBox="0 0 32 32" fill="none" xmlns="http://www.w3.org/2000/svg">
<path d="M16.0003 12.0667C16.178 12.0667 16.3447 12.0945 16.5003 12.1501C16.6558 12.2056 16.8003 12.3001 16.9336 12.4334L23.0669 18.5667C23.3114 18.8112 23.4336 19.1223 23.4336 19.5001C23.4336 19.8778 23.3114 20.1889 23.0669 20.4334C22.8225 20.6778 22.5114 20.8001 22.1336 20.8001C21.7558 20.8001 21.4447 20.6778 21.2003 20.4334L16.0003 15.2334L10.8003 20.4334C10.5558 20.6778 10.2447 20.8001 9.86693 20.8001C9.48915 20.8001 9.17804 20.6778 8.93359 20.4334C8.68915 20.1889 8.56693 19.8778 8.56693 19.5001C8.56693 19.1223 8.68915 18.8112 8.93359 18.5667L15.0669 12.4334C15.2003 12.3001 15.3447 12.2056 15.5003 12.1501C15.6558 12.0945 15.8225 12.0667 16.0003 12.0667Z" fill="#484746"/>
</svg>
