<svg width="32" height="32" viewBox="0 0 32 32" fill="none" xmlns="http://www.w3.org/2000/svg">
<path d="M16.0003 23.3333C17.667 23.3333 19.0837 22.75 20.2503 21.5833C21.417 20.4167 22.0003 19 22.0003 17.3333C22.0003 15.6667 21.417 14.25 20.2503 13.0833C19.0837 11.9167 17.667 11.3333 16.0003 11.3333C14.3337 11.3333 12.917 11.9167 11.7503 13.0833C10.5837 14.25 10.0003 15.6667 10.0003 17.3333C10.0003 19 10.5837 20.4167 11.7503 21.5833C12.917 22.75 14.3337 23.3333 16.0003 23.3333ZM16.0003 20.6667C15.067 20.6667 14.2781 20.3444 13.6337 19.7C12.9892 19.0556 12.667 18.2667 12.667 17.3333C12.667 16.4 12.9892 15.6111 13.6337 14.9667C14.2781 14.3222 15.067 14 16.0003 14C16.9337 14 17.7225 14.3222 18.367 14.9667C19.0114 15.6111 19.3337 16.4 19.3337 17.3333C19.3337 18.2667 19.0114 19.0556 18.367 19.7C17.7225 20.3444 16.9337 20.6667 16.0003 20.6667ZM5.33366 28C4.60033 28 3.97255 27.7389 3.45033 27.2167C2.9281 26.6944 2.66699 26.0667 2.66699 25.3333V9.33333C2.66699 8.6 2.9281 7.97222 3.45033 7.45C3.97255 6.92778 4.60033 6.66667 5.33366 6.66667H9.53366L11.2003 4.86667C11.4448 4.6 11.7392 4.38889 12.0837 4.23333C12.4281 4.07778 12.7892 4 13.167 4H18.8337C19.2114 4 19.5725 4.07778 19.917 4.23333C20.2614 4.38889 20.5559 4.6 20.8003 4.86667L22.467 6.66667H26.667C27.4003 6.66667 28.0281 6.92778 28.5503 7.45C29.0725 7.97222 29.3337 8.6 29.3337 9.33333V25.3333C29.3337 26.0667 29.0725 26.6944 28.5503 27.2167C28.0281 27.7389 27.4003 28 26.667 28H5.33366Z" fill="#CCCCCC" fill-opacity="0.7"/>
</svg>
