<svg width="152" height="33" viewBox="0 0 152 33" fill="none" xmlns="http://www.w3.org/2000/svg">
<path d="M94.6384 0.43335L94.5203 0.623779L83.3748 18.7058V31.3718C83.3748 31.573 83.3071 31.7504 83.1794 31.8777C83.0518 32.0049 82.8741 32.073 82.6726 32.073H77.4275V18.7039L66.4744 0.661865L66.3591 0.471436H72.8875L72.9246 0.531982L80.5535 13.1697L88.0701 0.494873L88.1062 0.43335H94.6384Z" fill="#1A1918" stroke="#1A1918" stroke-width="0.25"/>
<path d="M44.0176 0.547852V13.5947H55.8945V0.547852H61.418V31.2949C61.4179 31.5344 61.3405 31.7215 61.208 31.8535C61.0777 31.9833 60.905 32.0496 60.7314 32.0713L60.7236 32.0723H55.8945V18.2578H44.0176V31.2949C44.0175 31.5221 43.9659 31.7224 43.8291 31.8652C43.6911 32.0091 43.4883 32.0722 43.2383 32.0723H38.3779V0.547852H44.0176Z" fill="#1A1918" stroke="#1A1918" stroke-width="0.25"/>
<path d="M31.7066 22.5365C31.7066 23.8423 31.4558 25.0747 30.9543 26.2338C30.4675 27.3783 29.789 28.3833 28.9187 29.249C28.0631 30.1 27.0527 30.7749 25.8874 31.2737C24.7369 31.7579 23.5052 32 22.1924 32C21.0123 32 19.8765 31.7946 18.785 31.3838C17.7082 30.9729 16.7346 30.3714 15.8643 29.5791C14.9941 30.3714 14.0131 30.9729 12.9216 31.3838C11.83 31.7946 10.6942 32 9.51418 32C8.20137 32 6.96231 31.7579 5.79701 31.2737C4.64646 30.7749 3.63604 30.1 2.76575 29.249C1.91021 28.3833 1.23168 27.3783 0.730158 26.2338C0.243386 25.0747 0 23.8423 0 22.5365V0H6.35016V22.5365C6.35016 22.9766 6.43129 23.3948 6.59355 23.7909C6.75581 24.1724 6.97706 24.5099 7.25733 24.8033C7.55234 25.0821 7.89161 25.3022 8.27512 25.4635C8.65864 25.6249 9.07166 25.7056 9.51418 25.7056C9.9567 25.7056 10.3697 25.6249 10.7532 25.4635C11.1368 25.3022 11.4686 25.0821 11.7489 24.8033C12.0439 24.5099 12.2726 24.1724 12.4348 23.7909C12.5971 23.3948 12.6782 22.9766 12.6782 22.5365V0H19.0284V22.5365C19.0284 22.9766 19.1095 23.3948 19.2717 23.7909C19.434 24.1724 19.6553 24.5099 19.9355 24.8033C20.2305 25.0821 20.5698 25.3022 20.9533 25.4635C21.3368 25.6249 21.7499 25.7056 22.1924 25.7056C22.6349 25.7056 23.0479 25.6249 23.4314 25.4635C23.8149 25.3022 24.1468 25.0821 24.4271 24.8033C24.7221 24.5099 24.9508 24.1724 25.113 23.7909C25.29 23.3948 25.3785 22.9766 25.3785 22.5365V0H31.7066V22.5365Z" fill="#1A1918"/>
<path d="M123.828 31.2808C123.828 31.5569 123.605 31.7808 123.328 31.7808H117.036L104.8 11.005V31.2808C104.8 31.5569 104.576 31.7808 104.3 31.7808H98.45V0.220947H105.243L117.478 21.0187V0.220947H123.828V31.2808Z" fill="#1A1918"/>
<path d="M152 31.2808C152 31.5569 151.776 31.7808 151.5 31.7808H130.25V0.220947H152V6.53732H136.6V12.8537H147.022V19.1701H136.6V25.4644H152V31.2808Z" fill="#1A1918"/>
</svg>
