<svg width="143" height="31" viewBox="0 0 143 31" fill="none" xmlns="http://www.w3.org/2000/svg">
<path d="M88.6758 0.272461L88.4414 0.65332L78.0459 17.5732V29.4102C78.0459 29.6289 77.9718 29.8309 77.8242 29.9785C77.6766 30.1261 77.4745 30.2002 77.2559 30.2002H72.2217V17.5713L62.0049 0.6875L61.7754 0.308594H68.1885L68.2607 0.429688L75.2754 12.0859L82.1855 0.395508L82.2578 0.272461H88.6758Z" fill="white" stroke="white" stroke-width="0.5"/>
<path d="M41.2666 0.380859V12.6123H52.0986V0.380859H57.5273V29.3389C57.5273 29.5935 57.4441 29.8039 57.292 29.9561C57.144 30.1039 56.9522 30.1753 56.7686 30.1982L56.7539 30.2002H52.0986V17.249H41.2666V29.3389C41.2666 29.5695 41.215 29.7972 41.0537 29.9658C40.8904 30.1366 40.6596 30.2002 40.4053 30.2002H35.7305V0.380859H41.2666Z" fill="white" stroke="white" stroke-width="0.5"/>
<path d="M29.6293 21.1279C29.6293 22.3521 29.395 23.5076 28.9263 24.5942C28.4714 25.6671 27.8373 26.6094 27.0241 27.4209C26.2246 28.2187 25.2804 28.8514 24.1914 29.3191C23.1162 29.773 21.9652 30 20.7384 30C19.6357 30 18.5743 29.8074 17.5543 29.4223C16.548 29.0371 15.6383 28.4732 14.825 27.7304C14.0117 28.4732 13.0951 29.0371 12.075 29.4223C11.055 29.8074 9.9936 30 8.89086 30C7.66406 30 6.50618 29.773 5.41722 29.3191C4.34205 28.8514 3.39782 28.2187 2.58455 27.4209C1.78506 26.6094 1.15099 25.6671 0.682322 24.5942C0.227441 23.5076 0 22.3521 0 21.1279V0H5.93413V21.1279C5.93413 21.5406 6.00994 21.9326 6.16157 22.304C6.3132 22.6616 6.51996 22.978 6.78186 23.2531C7.05755 23.5144 7.37459 23.7208 7.73298 23.8721C8.09137 24.0234 8.47733 24.099 8.89086 24.099C9.30439 24.099 9.69035 24.0234 10.0487 23.8721C10.4071 23.7208 10.7173 23.5144 10.9792 23.2531C11.2549 22.978 11.4685 22.6616 11.6201 22.304C11.7718 21.9326 11.8476 21.5406 11.8476 21.1279V0H17.7817V21.1279C17.7817 21.5406 17.8575 21.9326 18.0092 22.304C18.1608 22.6616 18.3675 22.978 18.6294 23.2531C18.9051 23.5144 19.2222 23.7208 19.5806 23.8721C19.939 24.0234 20.3249 24.099 20.7384 24.099C21.152 24.099 21.5379 24.0234 21.8963 23.8721C22.2547 23.7208 22.5649 23.5144 22.8268 23.2531C23.1024 22.978 23.3161 22.6616 23.4677 22.304C23.6331 21.9326 23.7158 21.5406 23.7158 21.1279V0H29.6293V21.1279Z" fill="white"/>
<path d="M115.716 28.7944C115.716 29.3467 115.268 29.7944 114.716 29.7944H109.368L97.9341 10.3171V28.7944C97.9341 29.3467 97.4864 29.7944 96.9341 29.7944H92V0.207031H98.3477L109.782 19.705V0.207031H115.716V28.7944Z" fill="white"/>
<path d="M142.041 28.7944C142.041 29.3467 141.593 29.7944 141.041 29.7944H121.716V0.207031H142.041V6.12863H127.65V12.0502H137.389V17.9718H127.65V23.8728H142.041V28.7944Z" fill="white"/>
</svg>
