<svg width="169" height="166" viewBox="0 0 169 166" fill="none" xmlns="http://www.w3.org/2000/svg">
<circle cx="87" cy="84" r="82" fill="white"/>
<path d="M87 2C41.7078 2 5 38.7078 5 84C5 129.292 41.7078 166 87 166C132.292 166 169 129.292 169 84C169 38.7078 132.292 2 87 2ZM87 43C99.7388 43 110.062 53.3269 110.062 66.0625C110.062 78.7981 99.7484 89.125 87 89.125C74.2644 89.125 63.9375 78.7981 63.9375 66.0625C63.9375 53.3269 74.2516 43 87 43ZM87 145.5C70.0459 145.5 54.6805 138.604 43.5336 127.47C48.7227 114.077 61.5352 104.5 76.75 104.5H97.25C112.478 104.5 125.29 114.071 130.466 127.47C119.32 138.613 103.945 145.5 87 145.5Z" fill="#D1D1D1"/>
<circle opacity="0.3" cx="87" cy="84" r="82" fill="#D1D1D1"/>
<rect x="5" y="2" width="164" height="164" rx="82" fill="#1A1918" fill-opacity="0.5"/>
<path d="M87.0004 93.1667C89.0837 93.1667 90.8546 92.4375 92.3129 90.9792C93.7712 89.5208 94.5004 87.75 94.5004 85.6667C94.5004 83.5833 93.7712 81.8125 92.3129 80.3542C90.8546 78.8958 89.0837 78.1667 87.0004 78.1667C84.9171 78.1667 83.1462 78.8958 81.6879 80.3542C80.2296 81.8125 79.5004 83.5833 79.5004 85.6667C79.5004 87.75 80.2296 89.5208 81.6879 90.9792C83.1462 92.4375 84.9171 93.1667 87.0004 93.1667ZM87.0004 89.8333C85.8337 89.8333 84.8476 89.4306 84.0421 88.625C83.2365 87.8194 82.8337 86.8333 82.8337 85.6667C82.8337 84.5 83.2365 83.5139 84.0421 82.7083C84.8476 81.9028 85.8337 81.5 87.0004 81.5C88.1671 81.5 89.1532 81.9028 89.9587 82.7083C90.7643 83.5139 91.1671 84.5 91.1671 85.6667C91.1671 86.8333 90.7643 87.8194 89.9587 88.625C89.1532 89.4306 88.1671 89.8333 87.0004 89.8333ZM73.6671 99C72.7504 99 71.9657 98.6736 71.3129 98.0208C70.6601 97.3681 70.3337 96.5833 70.3337 95.6667V75.6667C70.3337 74.75 70.6601 73.9653 71.3129 73.3125C71.9657 72.6597 72.7504 72.3333 73.6671 72.3333H78.9171L81.0004 70.0833C81.306 69.75 81.674 69.4861 82.1046 69.2917C82.5351 69.0972 82.9865 69 83.4587 69H90.5421C91.0143 69 91.4657 69.0972 91.8962 69.2917C92.3268 69.4861 92.6949 69.75 93.0004 70.0833L95.0837 72.3333H100.334C101.25 72.3333 102.035 72.6597 102.688 73.3125C103.341 73.9653 103.667 74.75 103.667 75.6667V95.6667C103.667 96.5833 103.341 97.3681 102.688 98.0208C102.035 98.6736 101.25 99 100.334 99H73.6671Z" fill="#CCCCCC" fill-opacity="0.7"/>
</svg>
