<svg width="20" height="20" viewBox="0 0 20 20" fill="none" xmlns="http://www.w3.org/2000/svg">
<path d="M9.16699 14.9998C10.7781 14.9998 12.1531 14.4339 13.292 13.3019C14.4309 12.17 15.0003 10.7915 15.0003 9.1665C15.0003 7.55539 14.4309 6.18039 13.292 5.0415C12.1531 3.90262 10.7781 3.33317 9.16699 3.33317C7.54199 3.33317 6.16352 3.90262 5.03158 5.0415C3.89963 6.18039 3.33366 7.55539 3.33366 9.1665C3.33366 10.7915 3.89963 12.17 5.03158 13.3019C6.16352 14.4339 7.54199 14.9998 9.16699 14.9998ZM9.16699 16.6665C8.12533 16.6665 7.14963 16.4686 6.23991 16.0728C5.33019 15.6769 4.53852 15.1422 3.86491 14.4686C3.1913 13.795 2.65658 13.0033 2.26074 12.0936C1.86491 11.1839 1.66699 10.2082 1.66699 9.1665C1.66699 8.13873 1.86491 7.16998 2.26074 6.26025C2.65658 5.35053 3.1913 4.55539 3.86491 3.87484C4.53852 3.19428 5.33019 2.65609 6.23991 2.26025C7.14963 1.86442 8.12533 1.6665 9.16699 1.6665C10.1948 1.6665 11.1635 1.86442 12.0732 2.26025C12.983 2.65609 13.7781 3.19428 14.4587 3.87484C15.1392 4.55539 15.6774 5.35053 16.0732 6.26025C16.4691 7.16998 16.667 8.13873 16.667 9.1665C16.667 10.0554 16.5212 10.8957 16.2295 11.6873C15.9378 12.479 15.535 13.2012 15.0212 13.854L17.7503 16.5832C17.917 16.7498 17.9969 16.9443 17.9899 17.1665C17.983 17.3887 17.8962 17.5832 17.7295 17.7498C17.5628 17.9026 17.3684 17.979 17.1462 17.979C16.9239 17.979 16.7295 17.9026 16.5628 17.7498L13.8337 15.0415C13.1809 15.5554 12.4587 15.9547 11.667 16.2394C10.8753 16.5241 10.042 16.6665 9.16699 16.6665Z" fill="#31302F"/>
</svg>
