<svg width="28" height="28" viewBox="0 0 28 28" fill="none" xmlns="http://www.w3.org/2000/svg">
<path d="M13.9997 21.5917L8.34454 25.1588C8.09471 25.3253 7.83353 25.3966 7.561 25.3728C7.28846 25.349 7.04999 25.2539 6.84559 25.0875C6.64118 24.921 6.4822 24.7129 6.36865 24.4632C6.25509 24.2135 6.23238 23.9341 6.30051 23.6249L7.79946 16.8831L2.7916 12.3529C2.56449 12.1389 2.42254 11.8951 2.36576 11.6216C2.30899 11.3481 2.32602 11.0806 2.41687 10.819C2.50771 10.5574 2.64398 10.3434 2.82567 10.1769C3.00736 10.0105 3.25719 9.90347 3.57515 9.85591L10.1842 9.2495L12.7392 2.90005C12.8527 2.61468 13.0288 2.40066 13.2672 2.25797C13.5057 2.11529 13.7498 2.04395 13.9997 2.04395C14.2495 2.04395 14.4936 2.11529 14.7321 2.25797C14.9706 2.40066 15.1466 2.61468 15.2602 2.90005L17.8152 9.2495L24.4242 9.85591C24.7422 9.90347 24.992 10.0105 25.1737 10.1769C25.3554 10.3434 25.4916 10.5574 25.5825 10.819C25.6733 11.0806 25.6904 11.3481 25.6336 11.6216C25.5768 11.8951 25.4349 12.1389 25.2077 12.3529L20.1999 16.8831L21.6988 23.6249C21.767 23.9341 21.7443 24.2135 21.6307 24.4632C21.5171 24.7129 21.3582 24.921 21.1538 25.0875C20.9494 25.2539 20.7109 25.349 20.4384 25.3728C20.1658 25.3966 19.9046 25.3253 19.6548 25.1588L13.9997 21.5917Z" fill="#9B1B30"/>
</svg>
